HIERARCHY
ROOT hip
{
	OFFSET 0.000000 0.000000 0.000000
	CHANNELS 6 Xposition Yposition Zposition Zrotation Yrotation Xrotation 
	JOINT lhipjoint
	{
		OFFSET 0.000000 0.000000 0.000000
		CHANNELS 3 Zrotation Yrotation Xrotation
		JOINT lfemur
		{
			OFFSET 1.363060 -1.794630 0.839290
			CHANNELS 3 Zrotation Yrotation Xrotation
			JOINT ltibia
			{
				OFFSET 2.448110 -6.726130 0.000000
				CHANNELS 3 Zrotation Yrotation Xrotation
				JOINT lfoot
				{
					OFFSET 2.562200 -7.039590 0.000000
					CHANNELS 3 Zrotation Yrotation Xrotation
					JOINT ltoes
					{
						OFFSET 0.157640 -0.433110 2.322550
						CHANNELS 3 Zrotation Yrotation Xrotation
						End Site
						{
							OFFSET 0.000000 0.000000 0.000000
						}
					}
				}
			}
		}
	}
	JOINT rhipjoint
	{
		OFFSET 0.000000 0.000000 0.000000
		CHANNELS 3 Zrotation Yrotation Xrotation
		JOINT rfemur
		{
			OFFSET -1.305520 -1.794630 0.839290
			CHANNELS 3 Zrotation Yrotation Xrotation
			JOINT rtibia
			{
				OFFSET -2.542530 -6.985550 0.000000
				CHANNELS 3 Zrotation Yrotation Xrotation
				JOINT rfoot
				{
					OFFSET -2.568260 -7.056230 0.000000
					CHANNELS 3 Zrotation Yrotation Xrotation
					JOINT rtoes
					{
						OFFSET -0.164730 -0.452590 2.363150
						CHANNELS 3 Zrotation Yrotation Xrotation
						End Site
						{
							OFFSET 0.000000 0.000000 0.000000
						}
					}
				}
			}
		}
	}
	JOINT lowerback
	{
		OFFSET 0.000000 0.000000 0.000000
		CHANNELS 3 Zrotation Yrotation Xrotation
		JOINT upperback
		{
			OFFSET 0.028270 2.035590 -0.193380
			CHANNELS 3 Zrotation Yrotation Xrotation
			JOINT thorax
			{
				OFFSET 0.056720 2.048850 -0.042750
				CHANNELS 3 Zrotation Yrotation Xrotation
				JOINT lowerneck
				{
					OFFSET 0.000000 0.000000 0.000000
					CHANNELS 3 Zrotation Yrotation Xrotation
					JOINT upperneck
					{
						OFFSET -0.054170 1.746240 0.172020
						CHANNELS 3 Zrotation Yrotation Xrotation
						JOINT head
						{
							OFFSET 0.104070 1.761360 -0.123970
							CHANNELS 3 Zrotation Yrotation Xrotation
							End Site
							{
								OFFSET 0.000000 0.000000 0.000000
							}
						}
					}
				}
				JOINT lclavicle
				{
					OFFSET 0.000000 0.000000 0.000000
					CHANNELS 3 Zrotation Yrotation Xrotation
					JOINT lhumerus
					{
						OFFSET 3.362410 1.200890 -0.311210
						CHANNELS 3 Zrotation Yrotation Xrotation
						JOINT lradius
						{
							OFFSET 4.983000 -0.000000 -0.000000
							CHANNELS 3 Zrotation Yrotation Xrotation
							JOINT lwrist
							{
								OFFSET 3.483560 -0.000000 -0.000000
								CHANNELS 3 Zrotation Yrotation Xrotation
								JOINT lhand
								{
									OFFSET 0.000000 0.000000 0.000000
									CHANNELS 3 Zrotation Yrotation Xrotation
									JOINT lfingers
									{
										OFFSET 0.715260 -0.000000 -0.000000
										CHANNELS 3 Zrotation Yrotation Xrotation
										End Site
										{
											OFFSET 0.000000 0.000000 0.000000
										}
									}
								}
								JOINT lthumb
								{
									OFFSET 0.000000 0.000000 0.000000
									CHANNELS 3 Zrotation Yrotation Xrotation
									End Site
									{
										OFFSET 0.000000 0.000000 0.000000
									}
								}
							}
						}
					}
				}
				JOINT rclavicle
				{
					OFFSET 0.000000 0.000000 0.000000
					CHANNELS 3 Zrotation Yrotation Xrotation
					JOINT rhumerus
					{
						OFFSET -3.136600 1.374050 -0.404650
						CHANNELS 3 Zrotation Yrotation Xrotation
						JOINT rradius
						{
							OFFSET -5.241900 -0.000000 -0.000000
							CHANNELS 3 Zrotation Yrotation Xrotation
							JOINT rwrist
							{
								OFFSET -3.444170 -0.000000 -0.000000
								CHANNELS 3 Zrotation Yrotation Xrotation
								JOINT rhand
								{
									OFFSET 0.000000 0.000000 0.000000
									CHANNELS 3 Zrotation Yrotation Xrotation
									JOINT rfingers
									{
										OFFSET -0.622530 -0.000000 -0.000000
										CHANNELS 3 Zrotation Yrotation Xrotation
										End Site
										{
											OFFSET 0.000000 0.000000 0.000000
										}
									}
								}
								JOINT rthumb
								{
									OFFSET 0.000000 0.000000 0.000000
									CHANNELS 3 Zrotation Yrotation Xrotation
									End Site
									{
										OFFSET 0.000000 0.000000 0.000000
									}
								}
							}
						}
					}
				}
			}
		}
	}
}
MOTION
Frames: 12
Frame Time: 0.008333
-6.417200 16.876166 -1.280788 -78.081478 -85.687010 75.954128 -4.534315 -2.166330 -0.809094 -11.210751 5.622408 -31.983764 2.653099 6.996550 21.009392 0.051779 -3.463555 -3.174752 0.640700 -5.120900 -14.253700 3.471382 7.269947 -5.313703 18.638770 -15.889192 15.487940 -1.354251 -8.577381 15.662406 -0.436621 19.826252 -2.263018 -0.008000 -0.577100 1.585900 7.030316 2.936525 10.539854 0.916551 3.695890 -0.964705 -5.526059 1.599799 17.297125 -0.062165 -3.461887 -8.422442 0.898808 -4.130238 16.046693 -1.943100 -1.561600 2.253100 -5.118836 -1.768171 3.216887 -80.971783 5.911766 26.605772 6.744048 -19.585068 -1.441847 0.114465 0.396749 35.940215 5.995673 -4.907439 -0.568600 -7.125000 0.000000 0.000000 -15.223200 24.639300 7.755000 8.104135 1.556341 5.389046 68.969912 21.645921 31.870498 -28.892527 45.301022 -9.229311 0.078083 -2.742816 -7.957588 -18.094926 7.762206 -3.402900 7.125000 0.000000 0.000000 6.514600 -18.846000 4.087400 
-6.553986 16.854846 -1.276220 -78.167387 -85.690788 75.916895 -4.529711 -2.181586 -0.825992 -11.146363 5.418069 -31.751671 2.688585 7.110405 21.330890 0.054035 -2.970979 -3.126388 0.571400 -4.840800 -13.455100 3.531846 7.324448 -5.326339 18.446237 -16.047440 16.153845 -1.324486 -8.623944 15.701126 -0.440747 19.800077 -1.956035 -0.009100 -0.614800 1.689400 6.823192 3.059642 10.843540 0.874024 3.866342 -0.914722 -5.545170 1.665024 17.369993 -0.094553 -3.523015 -8.531444 0.959737 -4.222437 16.002885 -1.912500 -1.609900 2.261300 -5.147306 -1.741590 3.231324 -80.736185 5.322238 26.449411 6.620223 -19.417124 -1.421192 0.134413 0.401620 36.187341 6.358088 -5.147414 -0.630300 -7.125000 0.000000 0.000000 -14.939600 24.388700 7.690700 8.117498 1.508520 5.396025 68.886782 22.073605 31.858684 -28.845732 45.232762 -9.188348 0.082791 -2.732477 -7.696883 -17.886065 7.624442 -3.316900 7.125000 0.000000 0.000000 6.649600 -19.016500 4.147900 
-6.691040 16.831645 -1.270397 -77.306047 -85.723604 74.882380 -4.510224 -2.204670 -0.853910 -11.100395 5.036246 -31.415655 2.742368 7.255457 21.765953 0.052582 -2.300181 -2.962111 0.411000 -4.115500 -11.401800 3.605126 7.374074 -5.334913 18.171750 -16.239635 16.793105 -1.296121 -8.710630 15.840153 -0.442598 19.752370 -1.567050 -0.009500 -0.628500 1.727000 6.552234 3.153216 11.167523 0.835780 4.001016 -0.853624 -5.519114 1.695430 17.472981 -0.109163 -3.585108 -8.634823 0.957424 -4.300239 15.889144 -1.910900 -1.653800 2.242000 -5.169955 -1.712924 3.247337 -80.575987 4.654834 26.026584 6.453316 -19.201484 -1.396271 0.161033 0.406442 36.721853 6.799638 -5.483380 -0.715000 -7.125000 0.000000 0.000000 -14.592000 24.039000 7.622200 8.135019 1.458581 5.403992 68.783866 22.492702 31.863430 -28.779915 45.148383 -9.135188 0.089978 -2.718253 -7.470768 -17.628087 7.466972 -3.215000 7.125000 0.000000 0.000000 6.819400 -19.215000 4.225000 
-6.827826 16.808624 -1.265023 -76.675560 -85.779718 74.098123 -4.492231 -2.224093 -0.880617 -11.039725 4.597990 -31.061484 2.804435 7.420154 22.261728 0.045831 -1.533759 -2.633972 0.267800 -3.328700 -9.195300 3.672121 7.421577 -5.343206 17.883569 -16.364750 17.348891 -1.281934 -8.848944 16.138369 -0.438491 19.710762 -1.034907 -0.015500 -0.804100 2.210100 6.258018 3.278070 11.502371 0.791273 4.174828 -0.793009 -5.496022 1.745502 17.566761 -0.186950 -3.630086 -8.730660 1.065581 -4.381967 15.769227 -1.855500 -1.699000 2.220000 -5.197520 -1.693756 3.268119 -80.345597 3.950446 25.605033 6.277145 -18.971795 -1.369756 0.186147 0.405481 37.286376 7.149613 -5.824490 -0.794700 -7.125000 0.000000 0.000000 -14.314300 23.688600 7.587800 8.144839 1.396105 5.411201 68.749387 22.899397 31.798601 -28.662112 45.030582 -9.060805 0.096832 -2.704402 -7.206715 -17.349318 7.312464 -3.111900 7.125000 0.000000 0.000000 7.003700 -19.410900 4.310100 
-6.963985 16.785871 -1.260096 -75.081264 -85.878649 72.304860 -4.457623 -2.258310 -0.914344 -11.114108 4.223148 -30.666411 2.872788 7.588566 22.778268 0.036210 -0.821793 -2.189689 0.192600 -2.826300 -7.795400 3.750308 7.459320 -5.342702 17.516167 -16.483148 17.844771 -1.278296 -9.058695 16.628773 -0.434663 19.661243 -0.547800 -0.019200 -0.894800 2.459300 5.875868 3.364877 11.903185 0.744293 4.306054 -0.737032 -5.464649 1.759116 17.595803 -0.225907 -3.670352 -8.798004 1.124573 -4.447838 15.660390 -1.829200 -1.735500 2.201000 -5.218337 -1.681905 3.287143 -80.134324 3.260303 25.083312 6.115551 -18.752303 -1.347663 0.208518 0.409173 37.912926 7.555192 -6.067976 -0.873100 -7.125000 0.000000 0.000000 -14.003700 23.429000 7.499600 8.147212 1.344148 5.418223 68.751582 23.269103 31.792935 -28.499935 44.883333 -8.960135 0.098522 -2.688865 -6.956776 -17.039830 7.231038 -3.024700 7.125000 0.000000 0.000000 7.214100 -19.535200 4.421500 
-7.100233 16.764820 -1.254273 -72.860220 -85.990997 69.901593 -4.415405 -2.299641 -0.950974 -11.239190 3.844191 -30.268048 2.948434 7.759936 23.322709 0.023496 -0.081208 -1.568525 0.117000 -2.204800 -6.072000 3.829895 7.481952 -5.335300 17.118685 -16.553501 18.215286 -1.293000 -9.339765 17.326232 -0.427607 19.608156 0.015634 -0.024800 -1.016200 2.793400 5.472210 3.459124 12.310963 0.688965 4.447517 -0.687335 -5.470746 1.776421 17.594721 -0.212796 -3.715422 -8.829176 1.199139 -4.527713 15.550167 -1.808900 -1.777000 2.172500 -5.239924 -1.671767 3.308323 -79.824560 2.525942 24.635346 5.929949 -18.495042 -1.319558 0.228217 0.412762 38.499369 7.965114 -6.246527 -0.946700 -7.125000 0.000000 0.000000 -13.695800 23.232700 7.388900 8.141842 1.289078 5.425744 68.843769 23.625293 31.748074 -28.260564 44.687512 -8.829255 0.098778 -2.676875 -6.691253 -16.763275 7.162173 -2.949700 7.125000 0.000000 0.000000 7.402100 -19.639600 4.521200 
-7.236123 16.744844 -1.248182 -69.891853 -86.134032 66.760489 -4.369697 -2.351215 -0.991720 -11.460868 3.493662 -29.906054 3.035200 7.937135 23.911777 0.010671 0.614177 -0.781915 0.078600 -1.808700 -4.977200 3.908476 7.491941 -5.324035 16.648680 -16.604921 18.468342 -1.324229 -9.685444 18.204433 -0.411452 19.620473 0.667203 -0.037600 -1.251000 3.439700 4.997247 3.553462 12.707174 0.632243 4.589813 -0.634085 -5.436283 1.778193 17.608950 -0.234084 -3.748336 -8.885667 1.315020 -4.598844 15.446531 -1.769300 -1.813800 2.153600 -5.260050 -1.667824 3.331855 -79.548468 1.711133 23.990119 5.718336 -18.202766 -1.288937 0.248200 0.415350 39.280117 8.379062 -6.408542 -1.021200 -7.125000 0.000000 0.000000 -13.386800 23.052000 7.270100 8.138058 1.224294 5.430365 68.908207 23.988661 31.716423 -27.996013 44.471525 -8.687966 0.095049 -2.661879 -6.442453 -16.499146 7.146100 -2.891500 7.125000 0.000000 0.000000 7.584200 -19.691900 4.625400 
-7.371386 16.728004 -1.241822 -65.715401 -86.241288 62.449435 -4.324902 -2.421896 -1.040142 -11.683342 3.053192 -29.540495 3.137407 8.118422 24.560333 -0.000450 1.250144 0.106735 0.060700 -1.589400 -4.372100 3.984115 7.466323 -5.302357 16.174586 -16.641813 18.576980 -1.375174 -10.088057 19.244643 -0.396504 19.616996 1.324802 -0.049800 -1.440000 3.960200 4.540928 3.646854 13.098930 0.565366 4.729284 -0.584969 -5.482459 1.781755 17.620880 -0.156656 -3.802383 -8.944785 1.403790 -4.694599 15.348362 -1.759600 -1.860800 2.134400 -5.284360 -1.659668 3.355217 -79.171540 0.862641 23.387912 5.526660 -17.920416 -1.261369 0.264967 0.419421 40.007981 8.799657 -6.499327 -1.088400 -7.125000 0.000000 0.000000 -13.077400 22.940600 7.127500 8.127067 1.155344 5.436883 69.086306 24.344799 31.646646 -27.685361 44.233701 -8.530387 0.088509 -2.651167 -6.179863 -16.244794 7.171356 -2.848000 7.125000 0.000000 0.000000 7.760500 -19.696200 4.734200 
-7.506828 16.712417 -1.234387 -61.686413 -86.310645 58.288617 -4.300640 -2.500942 -1.085728 -11.884731 2.700534 -29.258438 3.252216 8.321075 25.288169 -0.002669 1.678792 1.108226 0.066800 -1.667500 -4.587600 4.041765 7.425110 -5.282806 15.740536 -16.587869 18.624880 -1.449096 -10.525398 20.403247 -0.385026 19.581340 2.325111 -0.100000 -2.038800 5.612800 4.133502 3.755696 13.481321 0.499423 4.881117 -0.533411 -5.559525 1.799348 17.652024 -0.059700 -3.855131 -8.974703 1.524825 -4.798857 15.219219 -1.740400 -1.912000 2.094000 -5.312242 -1.651826 3.382235 -78.741700 -0.013218 22.953789 5.382919 -17.691903 -1.241804 0.280080 0.426319 40.508825 9.222508 -6.566854 -1.154300 -7.125000 0.000000 0.000000 -12.767400 22.849700 6.977300 8.118276 1.080493 5.443286 69.287472 24.678162 31.537324 -27.348911 43.980938 -8.363566 0.080222 -2.637717 -5.863581 -15.953570 7.215527 -2.802200 7.125000 0.000000 0.000000 7.962200 -19.686500 4.861400 
-7.640569 16.697816 -1.226952 -56.338009 -86.289775 52.798730 -4.303229 -2.615540 -1.140190 -12.039082 2.285291 -28.964102 3.384844 8.533279 26.090567 0.001840 1.946755 2.109389 0.067800 -1.680400 -4.623200 4.076175 7.332546 -5.255849 15.362510 -16.471742 18.604138 -1.544510 -10.997145 21.666821 -0.388532 19.465794 3.571350 -0.208900 -2.942900 8.119700 3.768418 3.836673 13.900167 0.437437 4.994439 -0.479233 -5.678157 1.799532 17.684571 0.059594 -3.898186 -8.994240 1.646538 -4.891632 15.060450 -1.723800 -1.958200 2.041000 -5.340335 -1.648961 3.411319 -78.310129 -0.925114 22.434303 5.266118 -17.483006 -1.227675 0.292019 0.437304 41.018980 9.673127 -6.542898 -1.210400 -7.125000 0.000000 0.000000 -12.440600 22.846600 6.790900 8.107847 0.997290 5.451118 69.522337 25.016601 31.425051 -26.996250 43.720583 -8.194332 0.069418 -2.626825 -5.610331 -15.694751 7.306106 -2.774800 7.125000 0.000000 0.000000 8.143900 -19.624300 4.986000 
-7.773771 16.684827 -1.217367 -50.409887 -86.221095 46.721545 -4.349758 -2.755604 -1.194658 -12.183080 1.891642 -28.705903 3.534049 8.764464 26.973851 0.013283 2.045444 3.037315 0.072000 -1.731300 -4.763700 4.069556 7.213090 -5.228101 14.968930 -16.392422 18.523735 -1.655692 -11.489985 22.998422 -0.414035 19.252793 4.941150 -0.335900 -3.724500 10.302800 3.400811 3.901133 14.332734 0.387775 5.081731 -0.419794 -5.760744 1.780004 17.723342 0.105891 -3.940484 -8.950017 1.775729 -4.985730 14.863803 -1.684400 -2.008800 1.959500 -5.363042 -1.656420 3.446033 -77.948972 -1.877140 21.903841 5.171374 -17.301060 -1.218860 0.305377 0.452442 41.442099 10.174972 -6.519221 -1.274000 -7.125000 0.000000 0.000000 -12.075000 22.837200 6.585000 8.099969 0.902618 5.458088 69.705990 25.370236 31.330910 -26.571177 43.402556 -7.996486 0.053075 -2.611164 -5.334996 -15.470712 7.443226 -2.763800 7.125000 0.000000 0.000000 8.302900 -19.517500 5.105300 
-7.906437 16.672734 -1.206797 -45.150712 -86.133420 41.315213 -4.429304 -2.888910 -1.240636 -12.253701 1.427015 -28.425898 3.688757 9.011844 27.890861 0.026674 2.072808 3.741667 0.077500 -1.795600 -4.941200 4.026833 7.095243 -5.205793 14.619200 -16.256316 18.377564 -1.797676 -12.005980 24.437821 -0.467607 18.910530 6.383665 -0.484400 -4.463000 12.383000 3.059848 3.976001 14.783117 0.343413 5.170684 -0.360203 -5.843262 1.771971 17.748402 0.080642 -3.965693 -8.843472 1.937760 -5.065823 14.616303 -1.613200 -2.055700 1.848100 -5.386317 -1.672346 3.483814 -77.622317 -2.817740 21.449945 5.145608 -17.197999 -1.221808 0.313017 0.473134 41.583196 10.644909 -6.396016 -1.315800 -7.125000 0.000000 0.000000 -11.735200 22.926200 6.367200 8.090577 0.808261 5.464870 69.870440 25.676133 31.233977 -26.159018 43.092045 -7.806120 0.038597 -2.593626 -5.096073 -15.221935 7.569212 -2.743800 7.125000 0.000000 0.000000 8.479100 -19.425700 5.233600 
